<?xml version="1.0" standalone="no"?>
<!DOCTYPE svg PUBLIC "-//W3C//DTD SVG 20010904//EN"
 "http://www.w3.org/TR/2001/REC-SVG-20010904/DTD/svg10.dtd">
<svg version="1.0" xmlns="http://www.w3.org/2000/svg"
 width="300.000000pt" height="450.000000pt" viewBox="0 0 300.000000 450.000000"
 preserveAspectRatio="xMidYMid meet">
<metadata>
Created by potrace 1.10, written by Peter Selinger 2001-2011
</metadata>
<g transform="translate(0.000000,450.000000) scale(0.100000,-0.100000)"
fill="#000000" stroke="none">
<path d="M1383 4271 c-61 -16 -91 -31 -60 -31 8 0 28 5 44 11 15 6 39 12 53
14 14 2 34 7 44 11 16 6 18 4 13 -11 -7 -16 -5 -16 9 -4 9 7 30 12 46 10 21
-2 28 1 23 9 -9 15 -94 10 -172 -9z"/>
<path d="M1570 4278 c0 -6 11 -8 25 -6 14 3 25 1 25 -4 0 -5 8 -4 19 1 10 6
21 8 24 4 7 -7 117 -33 117 -27 0 2 -17 11 -37 20 -44 18 -173 27 -173 12z"/>
<path d="M1790 4241 c0 -5 15 -14 33 -22 17 -7 34 -16 37 -20 3 -4 19 -11 35
-15 29 -6 29 -6 -8 20 -21 14 -44 26 -52 26 -8 0 -17 5 -20 10 -8 12 -25 13
-25 1z"/>
<path d="M1239 4212 c-63 -36 -136 -98 -127 -107 4 -4 26 10 48 32 23 22 64
51 91 64 27 13 49 27 49 32 0 12 -13 8 -61 -21z"/>
<path d="M1950 4139 c19 -18 44 -43 56 -56 15 -18 21 -20 21 -8 0 17 -82 95
-101 95 -6 0 5 -14 24 -31z"/>
<path d="M1052 4035 c-12 -19 -18 -35 -12 -35 5 0 10 3 10 8 0 4 11 20 25 35
15 15 20 27 13 27 -7 0 -23 -16 -36 -35z"/>
<path d="M1170 4053 c1 -5 15 -17 33 -28 26 -16 77 -86 77 -105 0 -3 -14 -20
-30 -39 -48 -54 -63 -125 -57 -260 8 -176 46 -252 165 -328 72 -46 205 -74
323 -69 141 7 140 21 -1 18 -99 -3 -141 0 -186 13 -211 61 -292 185 -282 429
5 125 26 172 93 212 58 34 141 41 278 24 88 -11 114 -10 188 4 109 20 144 20
195 -3 89 -40 118 -114 112 -282 -3 -96 -2 -116 9 -107 7 6 13 24 13 40 0 16
4 27 9 24 14 -9 21 21 21 96 0 74 -29 148 -57 148 -8 0 -12 4 -9 8 11 18 -34
70 -79 92 -43 21 -55 22 -133 15 -92 -9 -212 -10 -377 -4 -74 3 -111 -1 -142
-12 l-41 -16 -17 44 c-9 24 -31 54 -49 68 -32 25 -56 32 -56 18z"/>
<path d="M1014 3953 c-10 -21 -27 -44 -37 -51 -10 -8 -23 -20 -30 -28 -7 -8
-20 -23 -31 -34 -21 -21 -34 -100 -17 -100 6 0 10 -17 9 -40 -1 -22 -6 -40
-12 -40 -8 0 -8 -3 0 -8 18 -11 26 -49 13 -58 -7 -4 -10 -3 -7 2 3 5 2 18 -3
29 -6 14 -7 9 -4 -18 5 -41 59 -117 83 -117 8 0 -2 15 -22 35 -20 19 -36 42
-36 51 0 12 12 4 38 -24 22 -23 44 -42 50 -42 29 0 69 51 82 104 20 86 3 176
-42 219 -10 10 -16 22 -14 26 3 4 -8 5 -24 3 -46 -7 -97 -66 -91 -104 0 -5 -4
-8 -9 -8 -6 0 -10 8 -10 18 0 21 36 82 49 82 5 0 13 9 16 21 4 11 9 18 12 15
8 -8 27 15 47 57 23 50 15 58 -10 10z m32 -150 c46 -68 42 -187 -7 -247 -26
-30 -33 -34 -49 -24 -28 18 -63 86 -67 131 -4 48 20 139 43 162 24 23 55 15
80 -22z"/>
<path d="M964 3775 c-19 -47 -18 -132 4 -175 38 -77 77 -32 77 91 0 62 -4 81
-19 98 -27 30 -45 26 -62 -14z m51 -47 c3 -24 2 -63 -3 -88 l-9 -45 -17 37
c-19 44 -20 77 -4 113 16 36 26 31 33 -17z"/>
<path d="M2075 3964 c9 -14 14 -31 12 -39 -3 -7 14 -33 39 -59 24 -26 44 -41
44 -34 -1 17 -35 58 -50 58 -6 0 -8 5 -5 10 3 6 1 10 -5 10 -6 0 -10 6 -9 13
3 19 -19 67 -32 67 -7 0 -5 -10 6 -26z"/>
<path d="M1070 3865 c0 -4 11 -21 24 -38 32 -42 50 -116 43 -177 -3 -27 -2
-52 3 -55 4 -3 6 4 3 15 -3 11 -1 20 4 20 17 0 14 92 -3 141 -10 27 -22 49
-26 49 -4 0 -8 7 -8 15 0 8 -9 19 -20 25 -11 6 -20 8 -20 5z"/>
<path d="M1394 3826 c-32 -14 -50 -33 -41 -43 3 -3 16 2 29 11 12 9 41 16 65
16 43 0 65 13 37 24 -24 9 -56 6 -90 -8z"/>
<path d="M1865 3831 c-8 -14 12 -23 33 -17 10 3 34 -3 55 -13 44 -23 58 -11
21 18 -28 22 -98 29 -109 12z"/>
<path d="M2136 3801 c23 -46 28 -140 10 -191 -19 -55 -14 -65 7 -12 25 63 24
161 -3 211 -17 32 -30 25 -14 -8z"/>
<path d="M2184 3715 c2 -104 0 -112 -25 -150 -26 -38 -63 -75 -71 -72 -2 1 4
-4 12 -11 12 -11 16 -10 18 2 2 9 8 16 13 16 6 0 7 5 4 10 -3 6 1 10 9 10 9 0
18 11 22 25 3 14 10 23 14 20 22 -14 35 167 16 222 -13 36 -13 32 -12 -72z"/>
<path d="M1865 3766 c-37 -16 -53 -35 -65 -75 -24 -85 58 -170 137 -140 29 11
63 66 63 102 0 45 -26 94 -59 111 -36 19 -37 19 -76 2z m83 -39 c65 -69 15
-179 -73 -163 -44 9 -46 23 -2 18 38 -4 54 10 63 54 7 37 -27 84 -61 84 -27 0
-64 -42 -43 -49 7 -2 14 1 16 8 5 16 31 14 48 -4 14 -13 13 -18 -3 -45 -24
-41 -57 -40 -72 1 -16 47 -14 64 15 93 34 34 82 35 112 3z"/>
<path d="M1386 3739 c-45 -39 -55 -84 -30 -136 24 -47 57 -65 109 -59 78 9
118 92 80 166 -35 67 -102 79 -159 29z m125 -18 c23 -23 29 -38 29 -71 0 -56
-34 -90 -90 -90 -56 0 -90 34 -90 90 0 53 42 100 90 100 22 0 41 -9 61 -29z"/>
<path d="M1405 3695 c-38 -37 -32 -86 14 -109 45 -23 91 9 91 64 0 25 -42 70
-65 70 -9 0 -27 -11 -40 -25z m73 -44 c-2 -8 -11 -19 -20 -25 -26 -16 -41 4
-29 38 10 24 13 25 31 14 11 -7 19 -19 18 -27z"/>
<path d="M420 3720 c0 -5 6 -7 13 -4 7 2 23 -7 35 -21 12 -14 19 -25 16 -25
-4 0 -2 -6 4 -13 6 -7 13 -37 16 -66 5 -58 9 -66 25 -56 13 7 15 55 2 55 -16
0 -6 45 14 62 12 10 15 17 8 18 -7 0 -13 -4 -13 -9 0 -6 -9 -9 -20 -8 -11 1
-20 6 -20 13 0 16 -50 64 -66 64 -8 0 -14 -4 -14 -10z"/>
<path d="M372 3704 c-8 -14 -14 -15 -42 -5 l-33 11 27 -25 c15 -14 32 -25 37
-25 6 0 8 -4 4 -9 -3 -5 0 -13 6 -17 9 -5 10 1 5 21 -5 19 -2 33 10 46 9 11
12 19 6 19 -6 0 -15 -7 -20 -16z"/>
<path d="M240 3651 c-5 -11 -10 -28 -10 -38 0 -13 -12 -23 -35 -32 -19 -7 -35
-17 -35 -23 0 -6 6 -5 15 2 25 21 68 18 88 -4 16 -19 16 -18 -1 19 -13 28 -17
48 -11 68 9 32 4 35 -11 8z"/>
<path d="M631 3558 c2 -18 7 -38 11 -44 5 -7 7 -16 6 -22 -2 -5 2 -9 7 -8 6 0
8 8 6 16 -2 8 -4 32 -5 53 -1 23 -6 37 -14 37 -9 0 -13 -11 -11 -32z"/>
<path d="M160 3477 c0 -10 10 -32 22 -50 13 -18 24 -34 25 -36 2 -2 6 -1 10 2
3 4 -1 15 -10 24 -8 10 -23 32 -31 48 -11 20 -16 24 -16 12z"/>
<path d="M1002 3483 c-10 -4 -8 -9 7 -20 12 -8 21 -20 21 -27 0 -7 9 -23 20
-36 11 -13 20 -18 20 -12 0 6 -7 17 -15 26 -9 8 -15 17 -15 18 2 5 -19 58 -22
57 -2 0 -9 -3 -16 -6z"/>
<path d="M1496 3464 c-7 -18 14 -62 40 -85 78 -69 197 -64 276 12 21 20 38 45
38 57 0 26 1 26 -41 8 -78 -32 -198 -28 -272 9 -37 18 -34 18 -41 -1z m89 -39
c34 -12 29 -22 -7 -16 -5 0 -8 -3 -8 -9 0 -5 24 -10 54 -10 61 0 110 -15 101
-30 -3 -5 -28 -10 -54 -10 -36 0 -58 7 -94 31 -26 17 -47 37 -47 45 0 17 5 17
55 -1z m225 -16 c-14 -26 -56 -35 -87 -18 l-25 14 28 11 c16 7 43 12 61 12 29
0 31 -2 23 -19z"/>
<path d="M429 3454 c-5 -17 -1 -20 27 -22 20 -2 34 2 34 9 0 7 -10 9 -25 7
-17 -4 -25 0 -27 11 -3 12 -5 11 -9 -5z"/>
<path d="M2087 3450 c-3 -14 -6 -27 -6 -29 0 -2 -3 -7 -8 -10 -19 -14 -65 -83
-52 -79 7 2 20 16 29 30 8 14 23 37 33 51 10 14 17 34 15 44 -3 14 -5 13 -11
-7z"/>
<path d="M637 3430 c6 -28 23 -51 23 -32 0 6 11 22 25 36 l25 26 -39 -3 c-37
-2 -40 -4 -34 -27z"/>
<path d="M220 3377 c0 -4 6 -23 14 -41 7 -18 17 -52 21 -75 4 -22 11 -39 15
-36 5 3 5 18 0 33 -5 15 -11 42 -14 61 -4 29 -36 80 -36 58z"/>
<path d="M802 3352 c-29 -34 -83 -122 -76 -122 9 0 28 23 48 60 11 19 28 44
38 54 15 17 24 37 16 36 -2 0 -13 -13 -26 -28z"/>
<path d="M592 3362 c-12 -2 -38 -18 -57 -36 -27 -26 -35 -41 -34 -67 l1 -34 9
30 c13 44 31 62 78 84 43 19 45 30 3 23z"/>
<path d="M1110 3325 c24 -24 48 -41 53 -38 5 3 2 10 -8 15 -9 6 -29 23 -44 39
-16 16 -32 29 -37 29 -4 0 12 -20 36 -45z"/>
<path d="M1956 3290 c-16 -16 -78 -51 -98 -56 -5 -1 -10 -3 -13 -4 -7 -3 -22
-7 -36 -9 -21 -2 3 -21 27 -21 14 0 23 -4 20 -8 -2 -4 51 -8 119 -7 68 0 121
3 119 7 -9 14 -97 20 -134 9 -29 -9 -43 -8 -62 2 -20 10 -23 15 -12 25 7 7 16
12 20 12 11 0 93 55 94 63 0 13 -25 6 -44 -13z"/>
<path d="M1184 3269 c-3 -5 4 -9 15 -9 12 0 21 -4 21 -10 0 -5 5 -9 11 -7 27
5 17 -22 -11 -31 -16 -6 -30 -13 -30 -15 0 -7 119 -1 127 6 3 4 1 7 -6 7 -7 0
-10 4 -7 8 2 4 -22 20 -55 34 -32 14 -61 22 -65 17z"/>
<path d="M270 3204 c0 -3 9 -18 20 -34 11 -15 17 -30 14 -33 -7 -7 -13 -168
-7 -180 3 -4 9 -5 14 -1 5 3 6 11 2 17 -10 16 -11 47 -2 47 8 0 5 42 -5 58 -3
6 -2 13 4 17 5 3 10 14 10 24 0 22 -23 71 -33 71 -5 0 -5 5 -2 10 3 6 1 10 -4
10 -6 0 -11 -3 -11 -6z"/>
<path d="M977 3203 c-3 -5 26 -8 64 -9 37 0 66 3 63 8 -6 10 -121 11 -127 1z"/>
<path d="M700 3187 c0 -7 -10 -22 -23 -33 -20 -18 -23 -29 -21 -75 3 -68 10
-100 25 -113 8 -8 9 -5 4 13 -15 49 -6 152 15 178 22 28 25 43 10 43 -5 0 -10
-6 -10 -13z"/>
<path d="M919 3182 c-31 -14 -119 -86 -119 -99 0 -19 4 -17 59 37 28 28 58 50
65 50 8 0 18 5 21 10 7 11 -2 12 -26 2z"/>
<path d="M2110 3182 c0 -8 43 -32 55 -32 15 0 1 19 -20 28 -31 14 -35 15 -35
4z"/>
<path d="M1780 3142 c0 -38 -149 -69 -251 -53 -33 6 -67 7 -76 4 -11 -4 -14
-3 -9 5 5 8 -1 12 -18 12 -14 0 -27 4 -30 9 -8 12 -46 21 -46 11 0 -4 24 -18
53 -31 44 -20 71 -24 170 -25 123 -3 182 9 219 43 22 20 23 29 3 37 -10 3 -15
-1 -15 -12z"/>
<path d="M346 3118 c-17 -31 -17 -38 -5 -63 40 -85 260 -83 298 2 14 31 14 35
-6 60 -16 19 -20 20 -56 7 -22 -8 -59 -15 -82 -16 -24 -2 -41 -6 -38 -10 2 -5
-2 -8 -10 -8 -8 0 -17 7 -21 15 -3 8 -13 15 -22 15 -9 0 -22 7 -28 16 -10 14
-14 11 -30 -18z m77 -57 c58 -22 155 -3 184 36 11 15 13 14 19 -2 17 -44 -87
-85 -182 -70 -51 7 -112 53 -100 74 6 9 14 7 30 -8 11 -11 34 -24 49 -30z"/>
<path d="M2001 3098 c19 -18 41 -48 48 -65 7 -18 17 -33 21 -33 4 0 5 -11 3
-24 -3 -13 1 -27 7 -31 9 -5 10 -1 5 16 l-6 24 22 -25 21 -25 -17 28 c-9 16
-19 40 -21 54 -7 40 -53 105 -70 99 -8 -3 -14 -1 -14 4 0 6 -8 10 -17 10 -12
0 -7 -9 18 -32z"/>
<path d="M764 3033 c-20 -60 -49 -123 -57 -123 -5 0 -11 9 -14 20 -3 11 -9 17
-15 14 -5 -3 -5 -11 2 -19 6 -7 10 -17 9 -21 -1 -5 -1 -24 0 -42 l1 -33 25 27
c16 18 25 39 25 61 0 18 11 56 25 83 14 28 21 50 15 50 -6 0 -13 -8 -16 -17z"/>
<path d="M1612 2933 c-76 -132 -123 -227 -118 -240 3 -8 22 -12 51 -11 25 0
48 -2 51 -4 2 -3 -11 -40 -31 -83 -19 -43 -35 -82 -35 -87 0 -6 -7 -26 -16
-45 -13 -26 -14 -37 -5 -46 9 -9 41 18 141 120 134 138 240 262 240 282 0 7
-24 11 -70 11 l-71 0 51 75 c27 41 50 79 50 85 0 6 -37 10 -100 10 l-99 0 -39
-67z m199 29 c-5 -9 -30 -45 -55 -80 -25 -34 -46 -64 -46 -67 0 -3 34 -5 76
-5 l75 0 -20 -27 c-37 -46 -304 -333 -308 -330 -1 2 6 21 16 43 36 77 91 202
91 208 0 3 -27 6 -60 6 -33 0 -60 2 -60 4 0 4 115 209 136 244 13 20 23 22 90
22 68 0 74 -1 65 -18z"/>
<path d="M1200 2940 c-1 -19 -2 -41 -1 -47 1 -7 -4 -23 -11 -35 -7 -13 -11
-29 -10 -35 2 -7 -2 -13 -8 -13 -6 0 -8 -4 -5 -10 3 -5 1 -10 -4 -10 -6 0 -11
-12 -10 -27 0 -25 3 -22 25 22 26 55 38 116 31 161 -4 28 -4 28 -7 -6z"/>
<path d="M2303 2955 c0 -8 3 -15 7 -15 4 0 7 -10 6 -22 -1 -13 3 -26 9 -30 6
-5 4 -8 -5 -8 -12 0 -12 -2 -2 -9 11 -6 10 -16 -4 -50 -9 -23 -14 -45 -10 -48
9 -9 36 63 36 97 0 28 -24 100 -33 100 -2 0 -4 -7 -4 -15z"/>
<path d="M297 2908 c2 -51 4 -54 12 -34 8 21 3 66 -8 66 -3 0 -5 -15 -4 -32z"/>
<path d="M2081 2867 c-1 -43 3 -66 9 -62 11 7 11 55 0 100 -6 23 -8 14 -9 -38z"/>
<path d="M2126 2900 c8 -30 33 -80 39 -80 6 0 -19 62 -35 87 -9 15 -10 14 -4
-7z"/>
<path d="M894 2899 c-4 -7 -3 -9 3 -6 6 4 14 0 17 -8 3 -9 17 -20 31 -25 14
-5 25 -14 25 -20 0 -5 7 -10 15 -10 12 0 10 6 -7 24 -38 39 -75 59 -84 45z"/>
<path d="M2320 2762 c0 -6 18 -55 40 -110 22 -54 40 -107 40 -116 0 -9 4 -16
10 -16 11 0 2 55 -15 90 -7 14 -18 39 -25 55 -7 17 -16 38 -21 47 -5 10 -9 24
-9 32 0 8 -4 18 -10 21 -5 3 -10 2 -10 -3z"/>
<path d="M311 2718 c4 -24 8 -46 9 -50 0 -5 5 -8 10 -8 7 0 6 8 -1 23 -7 12
-12 23 -11 25 6 8 0 52 -7 52 -4 0 -5 -19 0 -42z"/>
<path d="M686 2678 c-4 -35 -7 -68 -8 -75 -1 -7 -4 -10 -8 -8 -4 3 -16 -5 -26
-16 -32 -35 -73 -51 -123 -47 -25 1 -48 -1 -51 -7 -3 -6 16 -11 44 -13 58 -4
129 20 151 51 8 11 17 18 21 15 8 -9 -24 -67 -54 -96 l-27 -25 25 14 c14 7 29
12 35 10 5 -1 7 1 3 4 -4 4 3 16 15 25 20 17 22 27 22 119 0 55 3 91 7 80 5
-12 13 -17 19 -13 7 4 9 3 6 -3 -3 -5 -2 -26 4 -46 12 -45 -1 -102 -33 -143
l-22 -28 32 19 c17 10 36 32 42 48 13 39 13 103 -1 130 -14 26 -50 67 -59 67
-4 0 -10 -28 -14 -62z"/>
<path d="M1160 2708 c0 -15 6 -31 13 -35 15 -10 37 -48 37 -66 0 -7 13 -26 28
-44 41 -44 68 -107 85 -197 16 -86 13 -91 -39 -81 -68 13 -139 17 -129 6 15
-16 206 -43 274 -39 44 2 57 0 54 -9 -3 -7 -9 -11 -13 -8 -13 8 -20 -23 -20
-86 0 -46 3 -59 15 -59 8 0 15 -4 15 -10 0 -5 -5 -10 -11 -10 -5 0 -7 -5 -4
-10 4 -6 11 -8 16 -5 5 4 9 -4 9 -17 0 -57 124 -126 205 -113 48 7 106 43 160
99 22 22 46 41 53 42 25 2 29 4 29 18 0 13 -4 13 -30 0 -35 -19 -41 -15 -27
20 13 36 12 73 -4 117 l-13 37 53 11 c42 10 51 15 42 25 -8 9 -24 9 -59 2 -46
-9 -49 -9 -86 26 -44 39 -119 63 -167 52 -43 -9 -99 -39 -139 -73 -31 -28 -37
-29 -95 -24 l-61 6 -6 46 c-12 86 -44 176 -85 235 -22 31 -54 83 -70 114 -25
48 -29 53 -30 30z m563 -369 c50 -13 113 -71 128 -116 19 -58 7 -145 -25 -188
-47 -61 -81 -77 -157 -73 -53 3 -73 9 -102 30 -121 93 -92 293 50 343 47 17
58 18 106 4z"/>
<path d="M1604 2291 c-54 -33 -79 -78 -79 -143 0 -63 19 -97 75 -135 43 -30
100 -30 152 -1 102 58 105 217 6 278 -43 26 -113 26 -154 1z m86 -25 c0 -8 10
-16 23 -18 30 -4 38 -48 8 -48 -12 0 -21 5 -21 11 0 17 -44 6 -48 -13 -2 -11
7 -18 30 -23 64 -14 85 -56 52 -103 -8 -12 -22 -22 -30 -22 -8 0 -14 -7 -14
-15 0 -8 -4 -15 -10 -15 -5 0 -10 7 -10 15 0 8 -9 15 -19 15 -23 0 -51 25 -51
46 0 19 29 18 51 -2 14 -12 22 -13 39 -4 29 15 21 32 -21 43 -49 13 -60 25
-57 66 2 26 10 39 28 48 14 7 24 17 23 23 -2 5 4 10 12 10 8 0 15 -6 15 -14z
m99 -42 c21 -27 27 -89 12 -128 -6 -15 -11 -9 -29 34 -16 38 -19 57 -12 70 13
24 13 43 0 35 -5 -3 -10 -1 -10 4 0 19 18 12 39 -15z m-220 -20 c-10 -12 -9
-13 5 -8 13 5 16 0 16 -25 0 -18 5 -31 13 -32 10 0 10 -2 0 -6 -7 -2 -13 -11
-13 -19 0 -8 -4 -14 -10 -14 -5 0 -10 -8 -10 -17 -1 -15 -2 -16 -9 -3 -15 25
-24 90 -13 90 5 0 10 6 9 13 -1 32 4 48 13 42 8 -5 7 -11 -1 -21z"/>
<path d="M330 2643 c0 -19 22 -63 32 -63 5 0 7 -4 3 -9 -3 -5 -1 -12 4 -15 16
-11 22 11 6 24 -8 7 -15 18 -15 24 0 16 -29 54 -30 39z"/>
<path d="M977 2643 c-4 -3 1 -15 10 -26 10 -10 16 -20 14 -21 -8 -2 10 -46 19
-46 9 0 8 8 -6 45 -9 24 -11 32 -13 45 -1 11 -14 13 -24 3z"/>
<path d="M905 2568 c-54 -46 -95 -94 -49 -58 10 8 23 18 29 22 27 18 99 87 90
87 -5 0 -37 -23 -70 -51z"/>
<path d="M2052 2548 c0 -7 -6 -31 -12 -53 -14 -52 -16 -57 -24 -76 -11 -24
-12 -98 -2 -101 5 -2 11 22 13 52 4 73 5 80 14 80 4 0 10 12 13 26 6 21 9 24
21 14 25 -21 65 -101 65 -131 0 -16 4 -29 9 -29 15 0 0 83 -20 108 -10 14 -19
31 -19 39 0 7 -7 16 -15 19 -9 4 -15 19 -15 35 0 28 -25 43 -28 17z"/>
<path d="M1982 2493 c-29 -80 -45 -149 -39 -165 3 -7 6 -4 6 7 1 12 14 63 31
115 33 105 34 131 2 43z"/>
<path d="M370 2534 c0 -4 10 -23 21 -44 20 -36 94 -89 106 -76 3 3 -3 9 -13
12 -10 4 -26 13 -34 21 -8 8 -23 19 -33 26 -16 11 -23 28 -26 60 -1 8 -21 10
-21 1z"/>
<path d="M1036 2508 c7 -23 33 -68 40 -68 2 0 -4 20 -14 45 -16 45 -40 65 -26
23z"/>
<path d="M2280 2493 c-14 -10 -34 -26 -45 -36 -20 -18 -19 -18 17 -1 20 9 35
21 32 26 -3 4 3 7 13 6 10 0 29 0 43 1 23 2 24 3 5 11 -30 13 -38 12 -65 -7z"/>
<path d="M772 2484 c-13 -9 -29 -13 -37 -10 -9 3 -19 -3 -25 -14 -14 -27 -3
-25 66 10 35 17 51 30 39 30 -11 0 -31 -7 -43 -16z"/>
<path d="M2455 2453 c4 -10 10 -26 13 -37 5 -20 52 -74 52 -60 0 16 -55 114
-64 114 -4 0 -5 -8 -1 -17z"/>
<path d="M648 2430 c-15 -5 -43 -7 -62 -6 -20 1 -36 -2 -36 -6 0 -16 108 -14
124 2 14 14 4 18 -26 10z"/>
<path d="M1070 2421 c0 -5 7 -14 15 -21 9 -8 15 -30 15 -59 1 -33 3 -41 10
-30 10 18 7 52 -8 92 -11 25 -32 38 -32 18z"/>
<path d="M2346 2423 c-29 -8 -96 -52 -96 -63 0 -15 9 -12 37 10 14 11 40 22
59 26 38 7 70 35 38 33 -11 -1 -28 -4 -38 -6z"/>
<path d="M2535 2315 c4 -16 12 -36 18 -44 7 -8 12 -21 13 -30 0 -9 3 -23 7
-31 8 -22 20 -74 19 -82 -1 -3 5 -9 13 -12 18 -7 19 3 2 29 -7 11 -14 34 -16
50 -1 17 -9 43 -17 59 -8 16 -14 34 -14 41 0 6 -7 20 -16 31 -15 18 -15 18 -9
-11z"/>
<path d="M2163 2306 c4 -10 7 -30 7 -45 0 -15 6 -35 13 -44 11 -15 12 -14 12
13 0 16 -2 30 -5 30 -3 0 -6 12 -5 27 0 14 -6 28 -14 31 -10 3 -12 0 -8 -12z"/>
<path d="M1085 2281 c-3 -6 -7 -70 -9 -143 -2 -73 -7 -141 -11 -150 -4 -11 -3
-18 4 -18 6 0 12 8 13 18 0 9 3 31 5 47 3 17 5 65 5 107 0 55 4 76 12 71 6 -3
6 0 -1 8 -15 15 -17 33 -4 25 4 -3 6 6 3 19 -5 27 -8 30 -17 16z"/>
<path d="M2198 2185 c-7 -8 13 -75 23 -75 4 0 10 -12 14 -27 4 -16 12 -34 18
-41 6 -8 12 -20 13 -27 3 -18 35 -65 45 -65 14 0 11 18 -4 27 -15 9 -67 110
-67 130 0 7 -4 13 -10 13 -5 0 -10 10 -10 23 0 25 -13 50 -22 42z"/>
<path d="M2021 2136 c-13 -15 -11 -147 2 -157 4 -3 9 -14 12 -25 2 -10 8 -33
14 -51 5 -17 7 -34 3 -37 -3 -3 0 -6 6 -6 15 0 15 -4 -2 83 -18 90 -29 149
-31 162 -1 6 3 18 7 28 10 21 5 22 -11 3z"/>
<path d="M2425 2033 c-43 -22 -76 -55 -71 -69 3 -7 -2 -15 -10 -18 -8 -3 -14
-11 -14 -17 0 -7 20 8 44 33 74 77 184 87 236 21 11 -14 20 -21 20 -16 0 11
-38 64 -55 75 -18 14 -119 8 -150 -9z"/>
<path d="M2623 2032 c1 -12 4 -22 7 -22 3 0 7 -16 8 -37 4 -58 21 -77 22 -23
0 28 -7 56 -20 75 -17 26 -19 27 -17 7z"/>
<path d="M1213 2001 c10 -4 17 -11 15 -16 -2 -6 6 -11 18 -13 11 -2 34 -15 51
-31 26 -24 63 -37 63 -23 0 16 -127 93 -152 91 -7 0 -5 -4 5 -8z"/>
<path d="M2471 1990 c-42 -10 -86 -43 -85 -64 1 -8 -1 -14 -5 -13 -6 2 -11 -7
-11 -19 0 -3 16 8 35 25 52 45 103 58 154 37 37 -14 41 -14 41 0 0 8 -16 22
-35 30 -38 15 -44 16 -94 4z"/>
<path d="M1923 1943 c-15 -20 -50 -58 -78 -84 -48 -46 -56 -69 -18 -55 14 6
15 9 4 15 -9 6 -10 11 -2 15 6 4 16 4 21 1 6 -3 11 -1 11 4 1 6 3 16 4 21 1 6
3 13 4 18 1 4 6 0 11 -8 8 -13 11 -11 16 8 4 12 12 22 20 22 15 0 37 35 39 63
2 24 0 22 -32 -20z"/>
<path d="M1039 1953 c-1 -17 -7 -40 -23 -92 -19 -63 -21 -90 -6 -75 5 5 11 23
14 39 2 17 6 37 9 45 3 8 7 24 10 35 3 11 8 28 12 38 4 10 3 17 -4 17 -6 0
-11 -3 -12 -7z"/>
<path d="M1340 1900 c0 -5 8 -15 18 -22 10 -7 37 -39 60 -70 24 -32 44 -58 46
-58 1 0 3 7 3 15 0 8 -6 15 -14 15 -7 0 -13 5 -13 11 0 5 6 7 13 3 13 -9 -37
61 -62 87 -20 19 -51 31 -51 19z"/>
<path d="M2676 1844 c15 -64 29 -87 20 -33 -6 38 -23 89 -29 89 -3 0 1 -25 9
-56z"/>
<path d="M2057 1831 c-3 -11 -1 -24 5 -27 6 -4 5 -10 -3 -15 -9 -5 -10 -9 -3
-9 8 0 12 -33 11 -105 -1 -58 -5 -105 -9 -105 -5 0 -4 -9 2 -19 6 -13 7 -28 0
-45 -5 -14 -5 -28 -1 -31 15 -9 24 72 24 211 0 126 -12 195 -26 145z"/>
<path d="M2292 1752 c-24 -49 -27 -78 -13 -101 6 -9 11 -10 15 -2 4 6 3 11 -1
11 -18 0 -11 45 13 85 25 44 29 55 17 55 -5 -1 -18 -22 -31 -48z"/>
<path d="M985 1734 c-14 -35 -34 -255 -21 -243 4 4 9 33 11 65 5 88 14 156 25
187 13 39 3 33 -15 -9z"/>
<path d="M1502 1695 c-7 -14 -12 -36 -12 -48 1 -20 2 -20 16 6 14 26 38 34 60
19 6 -4 16 -50 22 -103 12 -101 28 -159 43 -159 5 0 3 12 -4 28 -13 25 -17 48
-20 125 -1 15 -4 27 -7 27 -3 0 -5 22 -5 50 1 45 -2 50 -27 59 -19 7 -30 6
-35 -1 -4 -8 -9 -6 -13 6 -5 15 -8 14 -18 -9z"/>
<path d="M2433 1686 c-13 -13 -23 -28 -23 -34 0 -5 -9 -12 -21 -15 -12 -3 -18
-10 -14 -16 3 -6 -1 -25 -9 -43 -9 -17 -16 -40 -16 -51 0 -26 9 -17 15 14 3
13 16 34 31 45 15 12 23 27 20 33 -4 6 -2 9 7 5 21 -8 39 21 35 55 l-3 30 -22
-23z"/>
<path d="M2511 1633 c-1 -7 -16 -36 -33 -65 -36 -59 -45 -87 -22 -68 19 17 66
119 60 133 -3 9 -5 9 -5 0z"/>
<path d="M2677 1605 c-3 -19 -13 -42 -21 -51 -9 -8 -16 -20 -16 -27 0 -6 10 0
22 12 21 23 43 101 28 101 -4 0 -10 -16 -13 -35z"/>
<path d="M1460 1550 c0 -26 -1 -29 -17 -69 -8 -18 -12 -36 -9 -38 3 -3 11 7
17 23 17 43 28 104 18 104 -5 0 -9 -9 -9 -20z"/>
<path d="M2610 1504 c0 -8 -3 -13 -7 -11 -5 3 -28 -13 -53 -34 -25 -21 -40
-39 -33 -39 7 0 21 10 33 22 11 12 20 18 20 13 0 -5 14 4 30 20 31 29 38 45
20 45 -5 0 -10 -7 -10 -16z"/>
<path d="M2400 1462 c25 -23 48 -42 52 -42 13 0 -26 59 -42 63 -8 3 -24 8 -35
13 -11 4 0 -11 25 -34z"/>
<path d="M1147 1443 c17 -2 37 -11 43 -19 7 -8 19 -14 26 -14 8 0 26 -18 40
-40 34 -51 51 -52 25 -1 -24 47 -72 77 -126 77 -31 1 -33 0 -8 -3z"/>
<path d="M1910 1429 c-30 -12 -80 -58 -80 -73 0 -6 4 -5 9 2 4 8 10 12 12 11
7 -6 49 28 42 34 -7 7 9 10 42 8 15 -2 17 0 6 7 -11 8 -11 10 0 15 8 3 10 5 4
6 -5 0 -21 -5 -35 -10z"/>
<path d="M940 1371 c-14 -27 -13 -36 4 -22 11 10 13 4 9 -32 -4 -32 -1 -48 12
-60 26 -27 41 -20 15 7 -16 18 -21 32 -16 50 3 15 9 37 12 51 8 31 -20 35 -36
6z"/>
<path d="M1635 1357 c-4 -21 -5 -51 -1 -68 3 -18 -2 -48 -14 -80 -11 -27 -20
-67 -20 -87 0 -21 -5 -43 -11 -49 -8 -8 -8 -16 -1 -30 10 -17 11 -17 11 2 0
36 27 149 44 183 12 25 14 40 7 58 -7 16 -6 32 0 44 6 11 6 28 1 42 -8 21 -9
20 -16 -15z"/>
<path d="M2066 1365 c4 -16 7 -57 6 -90 0 -56 1 -58 10 -25 11 37 4 106 -13
130 -8 11 -9 7 -3 -15z"/>
<path d="M1002 1345 c-16 -35 -15 -70 2 -84 11 -9 14 -3 19 31 2 24 8 51 12
61 12 28 -20 21 -33 -8z"/>
<path d="M1381 1349 c0 -9 -8 -22 -16 -29 -9 -7 -15 -29 -15 -52 0 -24 -8 -51
-20 -68 -14 -20 -18 -37 -14 -59 4 -17 3 -31 -2 -31 -5 0 -10 -26 -11 -58 -1
-31 -9 -86 -17 -122 -27 -109 -28 -116 -17 -105 5 6 13 33 17 60 3 28 10 52
14 55 10 6 32 148 25 160 -3 5 0 12 6 15 6 4 8 18 5 30 -4 15 2 37 15 59 14
24 19 45 15 67 -3 23 0 36 11 44 8 6 13 20 10 31 -3 14 -5 15 -6 3z"/>
<path d="M916 1305 c3 -8 -9 -44 -26 -81 -43 -88 -79 -195 -72 -214 4 -10 9
-2 14 20 15 63 22 82 68 176 44 89 47 99 26 107 -10 4 -13 1 -10 -8z"/>
<path d="M1280 1285 c0 -20 -5 -45 -10 -56 -12 -21 2 -26 18 -6 16 19 19 89 5
94 -9 3 -13 -7 -13 -32z"/>
<path d="M2045 1201 c-3 -6 -1 -11 4 -11 6 0 11 -9 11 -20 0 -11 5 -20 10 -20
14 0 7 53 -7 57 -6 2 -14 -1 -18 -6z"/>
<path d="M1044 1182 c4 -7 2 -12 -4 -12 -7 0 -5 -7 4 -16 9 -8 21 -12 27 -8 8
4 9 3 5 -4 -4 -7 -4 -12 1 -13 74 -9 109 -8 130 6 13 9 21 20 18 26 -4 5 -15
3 -28 -6 -34 -24 -85 -19 -125 12 -20 15 -32 21 -28 15z"/>
<path d="M1846 1168 c3 -5 10 -6 15 -3 5 4 9 -1 9 -9 0 -39 85 -48 118 -13 30
32 28 43 -4 18 -33 -26 -100 -26 -107 -1 -2 9 -11 17 -20 17 -9 0 -14 -4 -11
-9z"/>
<path d="M2040 1135 c0 -7 4 -16 10 -20 5 -3 7 -36 5 -75 -2 -39 0 -72 5 -75
6 -4 10 14 11 42 1 26 3 61 5 76 2 18 -2 30 -12 34 -11 4 -12 8 -4 13 8 5 7 9
-4 13 -10 4 -16 1 -16 -8z"/>
<path d="M1585 839 c2 -99 6 -183 9 -186 3 -3 -1 -21 -9 -39 -13 -32 -29 -134
-28 -182 1 -12 8 -32 16 -45 18 -27 82 -67 75 -46 -3 8 -10 13 -16 12 -6 -2
-22 12 -37 29 -24 29 -26 36 -21 97 8 101 21 151 38 151 7 0 6 5 -1 14 -14 16
-11 47 4 58 6 5 5 8 -3 8 -9 0 -11 7 -7 19 3 11 1 22 -5 26 -7 4 -7 12 0 24 5
10 7 21 4 23 -11 12 -11 207 0 212 6 2 3 5 -6 5 -15 1 -16 -16 -13 -180z"/>
<path d="M812 978 c-5 -7 -13 -47 -17 -88 -3 -41 -8 -83 -11 -92 -3 -11 0 -18
8 -18 9 0 12 14 11 45 -1 25 2 43 6 41 5 -3 6 5 4 17 -2 12 0 41 5 65 11 45
10 49 -6 30z"/>
<path d="M2040 941 c0 -6 5 -13 10 -16 7 -5 8 -11 1 -19 -5 -6 -8 -44 -6 -84
2 -44 0 -70 -6 -67 -5 4 -9 -8 -9 -25 0 -29 -2 -31 -32 -25 -39 7 -108 -15
-152 -49 -71 -53 -154 -74 -184 -44 -6 6 -15 8 -19 4 -14 -14 38 -46 74 -46
36 0 79 19 129 56 39 30 107 54 151 54 26 0 36 5 40 20 5 19 6 18 25 -6 25
-32 36 -23 14 11 -12 19 -16 42 -13 94 1 39 -1 67 -5 65 -4 -3 -8 0 -8 5 0 6
4 11 8 11 5 0 9 16 10 35 1 25 -3 35 -13 35 -8 0 -15 -4 -15 -9z"/>
<path d="M1222 718 c-11 -34 -18 -65 -16 -67 6 -7 14 4 19 25 2 11 9 37 14 59
16 64 4 53 -17 -17z"/>
<path d="M770 688 c0 -29 -3 -64 -6 -78 -6 -20 -4 -23 6 -13 14 13 18 30 22
97 2 25 -2 41 -9 43 -9 3 -13 -10 -13 -49z"/>
<path d="M878 654 c-26 -8 -54 -24 -62 -36 -19 -27 -12 -36 11 -16 72 62 244
46 319 -29 22 -21 34 -28 34 -19 0 29 -68 85 -122 101 -63 18 -118 18 -180 -1z"/>
<path d="M1925 636 c-16 -7 -59 -32 -95 -55 -60 -39 -69 -42 -117 -39 -30 3
-61 12 -71 21 -25 23 -35 21 -22 -3 30 -57 125 -63 205 -14 26 16 63 39 83 51
24 14 53 23 82 23 55 0 83 14 48 23 -36 10 -80 7 -113 -7z"/>
<path d="M1200 620 c-6 -11 -8 -35 -5 -54 4 -19 8 -53 9 -77 1 -24 8 -53 15
-64 13 -20 13 -20 6 0 -4 11 -8 64 -9 117 0 54 -2 98 -3 98 -1 0 -7 -9 -13
-20z"/>
<path d="M882 596 c-45 -15 -72 -33 -72 -47 0 -5 19 0 42 12 35 18 54 21 117
17 78 -5 118 -20 159 -58 30 -28 40 -19 15 14 -42 59 -175 90 -261 62z"/>
<path d="M2180 602 c0 -5 12 -18 28 -27 15 -10 44 -36 65 -57 20 -22 37 -33
37 -26 0 8 -21 32 -46 53 -62 53 -84 68 -84 57z"/>
<path d="M2004 527 c-26 -18 -52 -42 -58 -52 -6 -11 -13 -22 -16 -25 -3 -3
-13 -17 -22 -31 l-17 -26 -73 13 c-40 8 -98 23 -129 34 -63 23 -69 24 -69 11
0 -13 86 -47 166 -65 163 -36 423 -39 486 -5 23 12 33 6 25 -15 -11 -28 -86
-41 -237 -40 -162 0 -299 21 -392 58 -32 13 -55 19 -52 14 9 -14 92 -48 119
-48 13 0 27 -5 30 -11 4 -5 12 -8 18 -6 7 2 34 -2 60 -10 26 -8 87 -15 136
-16 58 -1 88 -6 88 -14 0 -6 -5 -9 -11 -7 -27 10 -142 11 -153 2 -8 -6 -13 -7
-13 -1 0 5 -6 10 -12 11 -7 0 -31 5 -53 11 -22 6 -54 11 -72 11 -17 0 -34 6
-36 13 -4 9 -6 9 -6 -1 -1 -9 -7 -8 -26 4 -14 9 -25 12 -25 6 0 -8 10 -13 55
-27 44 -14 108 -24 116 -20 5 4 9 1 9 -5 0 -7 7 -10 15 -6 8 3 15 1 15 -5 0
-10 340 -8 370 3 44 15 57 24 83 50 27 29 35 70 18 96 -7 11 -9 11 -14 -2 -4
-9 -3 -16 1 -16 8 0 8 -59 0 -64 -44 -33 -71 -46 -106 -51 -23 -3 -42 -2 -42
3 0 5 6 9 13 10 51 3 110 31 120 57 3 6 -1 19 -9 30 -12 16 -18 17 -53 6 -88
-26 -331 -26 -331 1 0 5 12 27 28 48 31 45 87 80 152 97 l45 11 -46 1 c-37 1
-56 -6 -95 -32z m166 -233 c0 -12 -6 -15 -22 -10 -13 3 -34 6 -48 7 -17 1 -12
4 15 9 22 4 43 8 48 9 4 0 7 -6 7 -15z"/>
<path d="M815 496 c-27 -13 -22 -14 55 -9 49 3 102 1 126 -6 65 -18 134 -80
134 -121 0 -15 -70 -30 -170 -36 -90 -6 -131 0 -240 32 -25 7 -25 7 -7 -13 27
-30 91 -43 219 -43 126 1 179 10 216 37 26 19 30 40 9 36 -7 -2 -17 10 -23 25
-11 28 -70 81 -96 86 -7 2 -26 8 -41 14 -38 16 -145 14 -182 -2z"/>
<path d="M1212 340 c1 -40 -37 -78 -104 -102 -62 -22 -62 -5 -1 22 55 24 83
47 83 68 0 9 -8 5 -21 -12 -35 -44 -110 -59 -273 -54 -107 3 -150 9 -176 22
-35 17 -35 17 -13 -2 12 -11 20 -22 18 -24 -3 -3 5 -4 18 -3 12 1 40 -2 62 -7
49 -11 217 -14 233 -4 7 4 12 2 12 -6 0 -11 -28 -14 -140 -13 -76 1 -137 -2
-135 -5 2 -4 61 -10 131 -13 114 -4 133 -3 197 18 48 16 79 33 94 51 26 34 38
73 24 87 -6 6 -9 -1 -9 -23z"/>
</g>
</svg>
